# xmcd
#
# Track frame offsets: 
#        210
#        12017
#        24705
#        36080
#        51996
#        64492
#        81901
#        95161
#        110129
#        128860
#        143969
#        162649
#        177654
#        196093
#        207794
#        220903
#        233537
#        246552
#        258188
#        270724
#        283739
#        297371
#
# Disc length: 4132 seconds
#
# Revision: 0
# Processed by: cddbd v1.5.2PL0 Copyright (c) Steve Scherf et al.
# Submitted via: ExactAudioCopy v0.99pb5
#
DISCID=5d102216
DTITLE=Sonny Terry - Complete Recorded Works In Chronological Order
DYEAR=1999
DGENRE=Blues
TTITLE0=Rain Crow Bill
TTITLE1=Go Tell Aunt Rhody
TTITLE2=Cornbread Mead and Molasses
TTITLE3=Chain Gang Blues
TTITLE4=Stackolce
TTITLE5=Rock Me Momma
TTITLE6=Chain Gang Special
TTITLE7=Ham And Eggs
TTITLE8=Lost John
TTITLE9=It Takes A Chain Gang Man
TTITLE10=Betty and Dupree
TTITLE11=Pick-a-bale Of Cotton
TTITLE12=Red River
TTITLE13=Silver Fox Chanse
TTITLE14=Don't You Hear Me Callin' You
TTITLE15=Worried And Lonesome Blues
TTITLE16=She's A Sweet Woman
TTITLE17=Sound Bound Express
TTITLE18=You Don't Want Me Blues
TTITLE19=Tell Me Little Woman
TTITLE20=This Time Of The Year
TTITLE21=Goin' Down Slow (I Have Had My Fun_
EXTD=
EXTT0=
EXTT1=
EXTT2=
EXTT3=
EXTT4=
EXTT5=
EXTT6=
EXTT7=
EXTT8=
EXTT9=
EXTT10=
EXTT11=
EXTT12=
EXTT13=
EXTT14=
EXTT15=
EXTT16=
EXTT17=
EXTT18=
EXTT19=
EXTT20=
EXTT21=
PLAYORDER=
